<svg width="1920" height="434" viewBox="0 0 1920 434" fill="none" xmlns="http://www.w3.org/2000/svg">
<path d="M2017.42 88.0001C1827.98 88.0001 1811.34 196.75 1668.33 196.75C1525.33 196.75 1439.1 116.479 1189.86 116.479C933.86 116.479 892.581 240.296 681.326 302.849C412.415 382.464 144.899 223.326 0 437.45L2017.42 437.45L2017.42 88.0001Z" fill="url(#paint0_linear_213_5)"/>
<path d="M1922.11 25.1485C1922.11 25.1485 1714.37 -45.1033 1484.15 49.2267C1253.92 143.557 1286.26 252.575 969.902 204.965C653.541 157.355 444.295 252.575 363 435.122L1922.11 435.122L1922.11 25.1485Z" fill="url(#paint1_linear_213_5)"/>
<path d="M2022.03 133.371C2022.03 133.371 1890.3 7.70572 1648.79 129.127C1407.27 250.548 1274.81 319.126 908.377 239.175C756.773 205.98 613.991 182.689 461.846 221.811C340.967 253.038 137.031 327.613 119.5 434.5" stroke="#24A1AD" stroke-width="3.1" stroke-miterlimit="10"/>
<path d="M492.897 435.93C492.897 435.93 607.447 355.277 898.641 368.719C1111.88 368.719 931.183 321.671 1149.15 321.671C1367.13 321.671 1348.05 238.424 1501.37 191.09C1648.3 145.878 1848.97 220.138 2033.44 155.564L2049.86 475L492.897 435.93Z" fill="url(#paint2_linear_213_5)"/>
<path d="M752 434.415C752 434.415 883.829 289.688 1077.99 289.688C1272.15 289.688 1308.12 344.203 1499.84 344.203C1691.57 344.203 1722.74 160 1938.46 160V434.415H752Z" fill="url(#paint3_linear_213_5)"/>
<path d="M787.387 466.918C787.387 466.918 903.673 271.931 1097.13 256.043C1290.59 240.154 1332.09 306.583 1523.25 290.826C1714.41 275.069 1726.18 38.1666 1941.13 20.5004" stroke="#9B559C" stroke-width="3.1" stroke-miterlimit="10"/>
<defs>
<linearGradient id="paint0_linear_213_5" x1="1061.18" y1="212.065" x2="1026.09" y2="83.2655" gradientUnits="userSpaceOnUse">
<stop stop-color="#2E3875"/>
<stop offset="1" stop-color="#A1458E"/>
</linearGradient>
<linearGradient id="paint1_linear_213_5" x1="1207.94" y1="512.501" x2="1121.84" y2="80.6429" gradientUnits="userSpaceOnUse">
<stop stop-color="#A1458E"/>
<stop offset="0.125" stop-color="#744287"/>
<stop offset="0.255208" stop-color="#5E4184"/>
<stop offset="0.552083" stop-color="#3A5F8E"/>
<stop offset="0.713542" stop-color="#347096"/>
<stop offset="0.871023" stop-color="#229BA8"/>
</linearGradient>
<linearGradient id="paint2_linear_213_5" x1="1350.42" y1="328.392" x2="1320.27" y2="186.976" gradientUnits="userSpaceOnUse">
<stop stop-color="#393B7E"/>
<stop offset="0.751639" stop-color="#99448C"/>
</linearGradient>
<linearGradient id="paint3_linear_213_5" x1="1413.25" y1="262.295" x2="1455.1" y2="417.225" gradientUnits="userSpaceOnUse">
<stop stop-color="#24A3AD"/>
<stop offset="1" stop-color="#A1458E"/>
</linearGradient>
</defs>
</svg>
