<svg width="100" height="119" viewBox="0 0 100 119" fill="none" xmlns="http://www.w3.org/2000/svg">
<path d="M43.27 116H42.22V113.96C42.22 113.86 42.22 113.747 42.22 113.62C42.2267 113.493 42.2333 113.36 42.24 113.22C42.2533 113.073 42.2667 112.933 42.28 112.8H42.22V110.12H43.27V116ZM42.59 110.28V111.43C42.59 111.81 42.53 112.153 42.41 112.46C42.2967 112.76 42.13 113.02 41.91 113.24C41.69 113.453 41.4233 113.617 41.11 113.73C40.8033 113.843 40.46 113.9 40.08 113.9C39.5933 113.9 39.18 113.81 38.84 113.63C38.5 113.45 38.2367 113.18 38.05 112.82C37.87 112.453 37.78 111.99 37.78 111.43V108.86H38.83V111.2C38.83 111.6 38.8833 111.937 38.99 112.21C39.0967 112.477 39.2633 112.68 39.49 112.82C39.7233 112.953 40.02 113.02 40.38 113.02C40.8133 113.02 41.1633 112.933 41.43 112.76C41.7033 112.587 41.9033 112.333 42.03 112C42.1567 111.66 42.22 111.253 42.22 110.78V110.28H42.59ZM46.7677 116.09C46.2211 116.09 45.7877 115.94 45.4677 115.64C45.1544 115.333 44.9977 114.88 44.9977 114.28V111.06H46.0277V114.07C46.0277 114.463 46.1211 114.76 46.3077 114.96C46.4944 115.153 46.7344 115.25 47.0277 115.25C47.4211 115.25 47.7311 115.107 47.9577 114.82C48.1911 114.533 48.3077 114.093 48.3077 113.5V111.06H49.3477V114.07C49.3477 114.337 49.3911 114.557 49.4777 114.73C49.5644 114.903 49.6811 115.033 49.8277 115.12C49.9811 115.207 50.1544 115.25 50.3477 115.25C50.6011 115.25 50.8211 115.187 51.0077 115.06C51.2011 114.933 51.3511 114.74 51.4577 114.48C51.5644 114.22 51.6177 113.893 51.6177 113.5V111.06H52.6577V116H51.8577L51.7177 115.24H51.6577C51.5777 115.393 51.4677 115.537 51.3277 115.67C51.1877 115.797 51.0144 115.9 50.8077 115.98C50.6077 116.053 50.3677 116.09 50.0877 116.09C49.7144 116.09 49.3911 116.017 49.1177 115.87C48.8444 115.723 48.6411 115.503 48.5077 115.21H48.4577C48.3244 115.463 48.1044 115.673 47.7977 115.84C47.4911 116.007 47.1477 116.09 46.7677 116.09ZM60.9732 118.37V116.16C60.9732 116 60.9799 115.85 60.9932 115.71C61.0065 115.57 61.0232 115.423 61.0432 115.27H60.9832C60.8965 115.423 60.7865 115.563 60.6532 115.69C60.5199 115.81 60.3532 115.907 60.1532 115.98C59.9599 116.053 59.7232 116.09 59.4432 116.09C59.0699 116.09 58.7465 116.017 58.4732 115.87C58.2065 115.723 58.0032 115.503 57.8632 115.21H57.8032C57.6699 115.477 57.4499 115.69 57.1432 115.85C56.8432 116.01 56.5032 116.09 56.1232 116.09C55.5765 116.09 55.1432 115.94 54.8232 115.64C54.5099 115.333 54.3532 114.88 54.3532 114.28V111.06H55.3832V114.07C55.3832 114.463 55.4765 114.76 55.6632 114.96C55.8499 115.153 56.0899 115.25 56.3832 115.25C56.7765 115.25 57.0865 115.107 57.3132 114.82C57.5465 114.533 57.6632 114.093 57.6632 113.5V111.06H58.7032V114.07C58.7032 114.33 58.7465 114.55 58.8332 114.73C58.9199 114.903 59.0365 115.033 59.1832 115.12C59.3365 115.207 59.5099 115.25 59.7032 115.25C59.9565 115.25 60.1765 115.187 60.3632 115.06C60.5565 114.933 60.7065 114.74 60.8132 114.48C60.9199 114.22 60.9732 113.893 60.9732 113.5V111.06H62.0132V118.37H60.9732Z" fill="black"/>
<path d="M90 0H10C4.47715 0 0 4.47715 0 10V90C0 95.5229 4.47715 100 10 100H90C95.5229 100 100 95.5229 100 90V10C100 4.47715 95.5229 0 90 0Z" fill="black"/>
<path d="M37.1763 51.0869L37.1762 51.0866C36.9133 50.4466 36.8864 49.7339 37.1003 49.0759C37.3143 48.4179 37.7552 47.8573 38.3443 47.4943L40.7498 46.0115C40.9963 45.8594 41.2053 45.6536 41.3609 45.4093C41.5166 45.165 41.6149 44.8887 41.6486 44.601C41.6823 44.3133 41.6504 44.0217 41.5553 43.7481C41.4603 43.4745 41.3045 43.226 41.0998 43.0211C41.0997 43.0211 41.0997 43.0211 41.0997 43.0211L35.2132 37.1346L35.5668 36.7811L35.2132 37.1346C34.9082 36.8296 34.5093 36.6362 34.0808 36.5857C33.6524 36.5352 33.2194 36.6305 32.8518 36.8562C30.8617 38.0803 29.3025 39.8941 28.3909 42.0454C27.4793 44.1967 27.2607 46.5785 27.7655 48.8598C28.964 54.2392 32.2399 60.124 37.3114 65.2C42.3824 70.2754 48.2696 73.5469 53.6492 74.7456C55.9305 75.2504 58.3125 75.0318 60.4639 74.1201C62.5722 73.2267 64.3564 71.7113 65.5791 69.7778V69.7714L65.6532 69.6509C65.8791 69.2834 65.9747 68.8506 65.9244 68.4221C65.8742 67.9938 65.6811 67.5949 65.3765 67.2897L37.1763 51.0869ZM37.1763 51.0869C38.4927 54.2856 40.4301 57.1916 42.8767 59.6367C45.3233 62.0819 48.2304 64.0177 51.4299 65.3321L51.4305 65.3324C52.0703 65.5942 52.7823 65.6199 53.4394 65.4051C54.0962 65.1903 54.6554 64.7491 55.017 64.1602C55.0171 64.16 55.0171 64.1599 55.0172 64.1597L56.5005 61.7541C56.6525 61.5075 56.8584 61.2986 57.1027 61.1429C57.3469 60.9873 57.6233 60.8889 57.911 60.8552C58.1987 60.8216 58.4903 60.8535 58.7639 60.9485C59.0375 61.0436 59.286 61.1993 59.4908 61.4041C59.4909 61.4041 59.4909 61.4041 59.4909 61.4042L65.3762 67.2895L37.1763 51.0869Z" stroke="url(#paint0_linear_501_4)"/>
<path d="M55.7527 62.0184L65.0606 71.3262C65.4341 70.8831 65.7745 70.4131 66.0789 69.92C66.3637 69.4568 66.4842 68.9112 66.4208 68.3711C66.3575 67.8311 66.1141 67.3281 65.7299 66.9434L59.8415 61.0541C59.5833 60.796 59.27 60.5996 58.9251 60.4798C58.5802 60.36 58.2127 60.3198 57.85 60.3622C57.4874 60.4046 57.139 60.5286 56.8311 60.7248C56.5232 60.921 56.2637 61.1844 56.072 61.4952L55.75 62.0175L55.7527 62.0184Z" fill="url(#paint1_linear_501_4)"/>
<path d="M40.4928 46.7582L41.0159 46.4362C41.3267 46.2445 41.5901 45.985 41.7863 45.6771C41.9825 45.3692 42.1065 45.0208 42.1489 44.6582C42.1914 44.2955 42.1512 43.928 42.0313 43.5831C41.9115 43.2382 41.7152 42.9249 41.457 42.6667L35.5723 36.781C35.1876 36.3968 34.6846 36.1534 34.1446 36.09C33.6045 36.0267 33.0589 36.1472 32.5957 36.432C32.1025 36.7364 31.6325 37.0768 31.1895 37.4503L40.4982 46.7591L40.4928 46.7582Z" fill="url(#paint2_linear_501_4)"/>
<path d="M72.5001 38.9188V38.919C72.5012 42.4346 71.1223 45.8102 68.6602 48.3197C66.1991 50.8281 62.8523 52.2707 59.3389 52.3378H47.524L50.0986 50.8149C50.2493 50.7261 50.3766 50.6027 50.4703 50.455C50.5639 50.3074 50.6211 50.1395 50.6372 49.9654C50.6533 49.7912 50.6278 49.6157 50.5628 49.4534C50.4979 49.2911 50.3953 49.1465 50.2635 49.0315L50.2634 49.0315C48.5711 47.5557 47.2761 45.6789 46.4972 43.573C45.7183 41.467 45.4804 39.1993 45.8052 36.9775C46.13 34.7557 47.0071 32.651 48.3563 30.8561C49.7054 29.0613 51.4834 27.6337 53.5274 26.7041C55.5713 25.7746 57.8158 25.3729 60.0553 25.5357C62.2948 25.6986 64.4576 26.4208 66.3455 27.6363C68.2335 28.8518 69.7862 30.5216 70.8615 32.4928C71.9368 34.4639 72.5002 36.6734 72.5001 38.9188ZM47.4748 52.3669L47.4749 52.3668L47.4748 52.3669Z" stroke="url(#paint3_linear_501_4)"/>
<path d="M58.8769 25.0008C58.5047 25.0062 58.1364 25.0263 57.772 25.0612C61.3102 25.3974 64.5858 27.0744 66.9271 29.7485C69.2684 32.4226 70.4979 35.891 70.3636 39.4427C70.2294 42.9943 68.7414 46.36 66.2049 48.8497C63.6684 51.3393 60.2756 52.7643 56.722 52.8323H47.4629H47.471H59.3469C63.0221 52.7473 66.5145 51.2117 69.0614 48.5607C71.6084 45.9097 73.0031 42.3587 72.941 38.683C72.879 35.0073 71.3652 31.5055 68.7302 28.942C66.0951 26.3785 62.5529 24.9617 58.8769 25.0008Z" fill="#1F8B9D"/>
<defs>
<linearGradient id="paint0_linear_501_4" x1="39.5" y1="47" x2="61.5" y2="71.5" gradientUnits="userSpaceOnUse">
<stop offset="0.132614" stop-color="#1F8B9D"/>
<stop offset="0.46875" stop-color="#524485"/>
<stop offset="1" stop-color="#7B358B"/>
</linearGradient>
<linearGradient id="paint1_linear_501_4" x1="61.0937" y1="60.3458" x2="61.0937" y2="71.3262" gradientUnits="userSpaceOnUse">
<stop stop-color="#524485"/>
<stop offset="0.96875" stop-color="#7B358B"/>
</linearGradient>
<linearGradient id="paint2_linear_501_4" x1="36.6774" y1="36.0736" x2="36.6774" y2="46.7591" gradientUnits="userSpaceOnUse">
<stop stop-color="#524485"/>
<stop offset="0.96875" stop-color="#7B358B"/>
</linearGradient>
<linearGradient id="paint3_linear_501_4" x1="59.0821" y1="25.0004" x2="59.0821" y2="52.8378" gradientUnits="userSpaceOnUse">
<stop stop-color="#1F8B9D"/>
<stop offset="0.53125" stop-color="#524485"/>
<stop offset="1" stop-color="#7B358B"/>
</linearGradient>
</defs>
</svg>
