<svg width="100" height="119" viewBox="0 0 100 119" fill="none" xmlns="http://www.w3.org/2000/svg">
<path d="M47.03 109.55C46.65 109.55 46.3067 109.617 46 109.75C45.6933 109.877 45.4333 110.067 45.22 110.32C45.0067 110.567 44.8433 110.87 44.73 111.23C44.6167 111.583 44.56 111.983 44.56 112.43C44.56 113.017 44.65 113.527 44.83 113.96C45.0167 114.393 45.29 114.727 45.65 114.96C46.0167 115.193 46.4733 115.31 47.02 115.31C47.3333 115.31 47.63 115.283 47.91 115.23C48.19 115.177 48.4633 115.11 48.73 115.03V115.81C48.4633 115.91 48.1867 115.983 47.9 116.03C47.62 116.077 47.2833 116.1 46.89 116.1C46.1633 116.1 45.5567 115.95 45.07 115.65C44.5833 115.35 44.2167 114.923 43.97 114.37C43.73 113.817 43.61 113.167 43.61 112.42C43.61 111.88 43.6833 111.387 43.83 110.94C43.9833 110.493 44.2033 110.107 44.49 109.78C44.7833 109.453 45.1433 109.203 45.57 109.03C45.9967 108.85 46.4867 108.76 47.04 108.76C47.4067 108.76 47.76 108.797 48.1 108.87C48.44 108.943 48.7433 109.047 49.01 109.18L48.65 109.94C48.43 109.84 48.1833 109.75 47.91 109.67C47.6433 109.59 47.35 109.55 47.03 109.55ZM55.3184 108.86L52.7684 116H51.8684L49.3184 108.86H50.2584L51.8684 113.44C51.9417 113.633 52.005 113.82 52.0584 114C52.1117 114.18 52.1584 114.353 52.1984 114.52C52.245 114.68 52.285 114.84 52.3184 115C52.3517 114.84 52.3884 114.677 52.4284 114.51C52.475 114.343 52.525 114.17 52.5784 113.99C52.6384 113.81 52.7017 113.62 52.7684 113.42L54.3684 108.86H55.3184Z" fill="black"/>
<path d="M90 0H10C4.47715 0 0 4.47715 0 10V90C0 95.5229 4.47715 100 10 100H90C95.5229 100 100 95.5229 100 90V10C100 4.47715 95.5229 0 90 0Z" fill="black"/>
<path d="M67.843 74.1731C67.4085 74.5467 66.805 74.7667 66.1627 74.7667H32.8373C32.195 74.7667 31.5915 74.5467 31.157 74.1731C30.7248 73.8016 30.5 73.3153 30.5 72.8276V27.4391C30.5 26.9513 30.7248 26.4651 31.157 26.0936C31.5915 25.72 32.195 25.5 32.8373 25.5H66.1655C66.8072 25.5006 67.41 25.7209 67.8439 26.0943C68.2755 26.4657 68.5 26.9516 68.5 27.4391V72.8276C68.5 73.3153 68.2752 73.8016 67.843 74.1731Z" stroke="url(#paint0_linear_501_3)"/>
<path d="M45.0633 43.8804H36.2597C36.0988 43.8804 35.9394 43.8487 35.7907 43.7871C35.642 43.7255 35.5069 43.6353 35.3931 43.5214C35.2793 43.4076 35.1891 43.2725 35.1275 43.1239C35.0659 42.9752 35.0342 42.8158 35.0342 42.6549V31.7349C35.0342 31.5739 35.0659 31.4146 35.1275 31.2659C35.1891 31.1172 35.2793 30.9821 35.3931 30.8683C35.5069 30.7545 35.642 30.6642 35.7907 30.6026C35.9394 30.541 36.0988 30.5093 36.2597 30.5093H45.0633C45.3883 30.5093 45.7001 30.6385 45.9299 30.8683C46.1597 31.0981 46.2888 31.4098 46.2888 31.7349V42.6549C46.2888 42.9799 46.1597 43.2916 45.9299 43.5214C45.7001 43.7513 45.3883 43.8804 45.0633 43.8804Z" stroke="#7B358B"/>
<path d="M40.6641 38.8684C39.3386 38.8684 38.0453 39.2772 36.9607 40.0392C35.8761 40.8013 35.0529 41.8793 34.6035 43.1263C34.7061 43.4872 34.9235 43.8048 35.2229 44.031C35.5222 44.2571 35.8871 44.3795 36.2623 44.3795H45.0659C45.4411 44.3795 45.806 44.2571 46.1054 44.031C46.4047 43.8048 46.6221 43.4872 46.7247 43.1263C46.2754 41.8794 45.4523 40.8015 44.3679 40.0395C43.2835 39.2775 41.9904 38.8685 40.665 38.8684H40.6641Z" fill="#524485"/>
<path d="M40.6618 39.5149C42.1796 39.5149 43.41 38.2845 43.41 36.7667C43.41 35.2489 42.1796 34.0185 40.6618 34.0185C39.144 34.0185 37.9136 35.2489 37.9136 36.7667C37.9136 38.2845 39.144 39.5149 40.6618 39.5149Z" fill="#524485"/>
<path d="M63.6963 51.286H34.6023C34.3803 51.286 34.1674 51.1978 34.0104 51.0408C33.8533 50.8838 33.7651 50.6708 33.7651 50.4488C33.7651 50.2268 33.8533 50.0138 34.0104 49.8568C34.1674 49.6998 34.3803 49.6116 34.6023 49.6116H63.6963C63.9184 49.6116 64.1313 49.6998 64.2883 49.8568C64.4453 50.0138 64.5335 50.2268 64.5335 50.4488C64.5335 50.6708 64.4453 50.8838 64.2883 51.0408C64.1313 51.1978 63.9184 51.286 63.6963 51.286Z" fill="#1F8B9D"/>
<path d="M63.6959 56.6793H34.6019C34.4898 56.6829 34.378 56.6639 34.2734 56.6235C34.1687 56.5831 34.0732 56.522 33.9926 56.444C33.912 56.3659 33.8479 56.2724 33.8041 56.1691C33.7603 56.0658 33.7378 55.9547 33.7378 55.8425C33.7378 55.7303 33.7603 55.6192 33.8041 55.5159C33.8479 55.4126 33.912 55.3191 33.9926 55.2411C34.0732 55.163 34.1687 55.102 34.2734 55.0615C34.378 55.0211 34.4898 55.0021 34.6019 55.0057H63.6959C63.8081 55.0021 63.9198 55.0211 64.0245 55.0615C64.1292 55.102 64.2246 55.163 64.3053 55.2411C64.3859 55.3191 64.4499 55.4126 64.4937 55.5159C64.5375 55.6192 64.5601 55.7303 64.5601 55.8425C64.5601 55.9547 64.5375 56.0658 64.4937 56.1691C64.4499 56.2724 64.3859 56.3659 64.3053 56.444C64.2246 56.522 64.1292 56.5831 64.0245 56.6235C63.9198 56.6639 63.8081 56.6829 63.6959 56.6793Z" fill="#1F8B9D"/>
<path d="M63.6963 62.0769H34.6023C34.3803 62.0769 34.1674 61.9887 34.0104 61.8316C33.8533 61.6746 33.7651 61.4617 33.7651 61.2397C33.7651 61.0176 33.8533 60.8047 34.0104 60.6477C34.1674 60.4907 34.3803 60.4025 34.6023 60.4025H63.6963C63.9184 60.4025 64.1313 60.4907 64.2883 60.6477C64.4453 60.8047 64.5335 61.0176 64.5335 61.2397C64.5335 61.4617 64.4453 61.6746 64.2883 61.8316C64.1313 61.9887 63.9184 62.0769 63.6963 62.0769Z" fill="#1F8B9D"/>
<path d="M63.6959 67.4658H34.6019C34.4898 67.4694 34.378 67.4505 34.2734 67.41C34.1687 67.3696 34.0732 67.3085 33.9926 67.2305C33.912 67.1524 33.8479 67.059 33.8041 66.9556C33.7603 66.8523 33.7378 66.7412 33.7378 66.629C33.7378 66.5168 33.7603 66.4058 33.8041 66.3024C33.8479 66.1991 33.912 66.1057 33.9926 66.0276C34.0732 65.9496 34.1687 65.8885 34.2734 65.8481C34.378 65.8076 34.4898 65.7887 34.6019 65.7923H63.6959C63.8081 65.7887 63.9198 65.8076 64.0245 65.8481C64.1292 65.8885 64.2246 65.9496 64.3053 66.0276C64.3859 66.1057 64.4499 66.1991 64.4937 66.3024C64.5375 66.4058 64.5601 66.5168 64.5601 66.629C64.5601 66.7412 64.5375 66.8523 64.4937 66.9556C64.4499 67.059 64.3859 67.1524 64.3053 67.2305C64.2246 67.3085 64.1292 67.3696 64.0245 67.41C63.9198 67.4505 63.8081 67.4694 63.6959 67.4658Z" fill="#1F8B9D"/>
<path d="M63.695 40.2464H53.0047C52.8947 40.2464 52.7859 40.2247 52.6843 40.1827C52.5827 40.1406 52.4904 40.0789 52.4127 40.0012C52.3349 39.9234 52.2733 39.8312 52.2312 39.7296C52.1891 39.628 52.1675 39.5191 52.1675 39.4092C52.1675 39.2993 52.1891 39.1904 52.2312 39.0888C52.2733 38.9872 52.3349 38.8949 52.4127 38.8172C52.4904 38.7395 52.5827 38.6778 52.6843 38.6357C52.7859 38.5937 52.8947 38.572 53.0047 38.572H63.695C63.805 38.572 63.9138 38.5937 64.0154 38.6357C64.117 38.6778 64.2093 38.7395 64.287 38.8172C64.3647 38.8949 64.4264 38.9872 64.4685 39.0888C64.5105 39.1904 64.5322 39.2993 64.5322 39.4092C64.5322 39.5191 64.5105 39.628 64.4685 39.7296C64.4264 39.8312 64.3647 39.9234 64.287 40.0012C64.2093 40.0789 64.117 40.1406 64.0154 40.1827C63.9138 40.2247 63.805 40.2464 63.695 40.2464Z" fill="#1F8B9D"/>
<path d="M63.6951 35.8212H53.0048C52.8926 35.8248 52.7809 35.8058 52.6762 35.7654C52.5715 35.725 52.476 35.6639 52.3954 35.5859C52.3148 35.5078 52.2507 35.4143 52.2069 35.311C52.1632 35.2077 52.1406 35.0966 52.1406 34.9844C52.1406 34.8722 52.1632 34.7612 52.2069 34.6578C52.2507 34.5545 52.3148 34.461 52.3954 34.383C52.476 34.3049 52.5715 34.2439 52.6762 34.2035C52.7809 34.163 52.8926 34.1441 53.0048 34.1477H63.6951C63.8072 34.1441 63.919 34.163 64.0236 34.2035C64.1283 34.2439 64.2238 34.3049 64.3044 34.383C64.385 34.461 64.4491 34.5545 64.4929 34.6578C64.5366 34.7612 64.5592 34.8722 64.5592 34.9844C64.5592 35.0966 64.5366 35.2077 64.4929 35.311C64.4491 35.4143 64.385 35.5078 64.3044 35.5859C64.2238 35.6639 64.1283 35.725 64.0236 35.7654C63.919 35.8058 63.8072 35.8248 63.6951 35.8212Z" fill="#1F8B9D"/>
<defs>
<linearGradient id="paint0_linear_501_3" x1="49.5" y1="25" x2="49.5" y2="75.2667" gradientUnits="userSpaceOnUse">
<stop stop-color="#1F8B9D"/>
<stop offset="0.53125" stop-color="#524485"/>
<stop offset="1" stop-color="#7B358B"/>
</linearGradient>
</defs>
</svg>
