<svg width="100" height="119" viewBox="0 0 100 119" fill="none" xmlns="http://www.w3.org/2000/svg">
<path d="M90 0H10C4.47715 0 0 4.47715 0 10V90C0 95.5229 4.47715 100 10 100H90C95.5229 100 100 95.5229 100 90V10C100 4.47715 95.5229 0 90 0Z" fill="black"/>
<path d="M41.0754 51.3062H40.8351L40.685 51.4938L37.1808 55.8736L33.6765 51.4938L33.5264 51.3062H33.2861H27.3022C25.4981 51.3062 23.768 50.5895 22.4923 49.3139C21.2167 48.0382 20.5 46.3081 20.5 44.504V31.3022C20.5 29.4981 21.2167 27.768 22.4923 26.4923C23.768 25.2167 25.4981 24.5 27.3022 24.5H47.0628C48.8669 24.5 50.597 25.2167 51.8727 26.4923C53.1483 27.768 53.865 29.4981 53.865 31.3022V44.504C53.865 46.3081 53.1483 48.0382 51.8727 49.3139C50.597 50.5895 48.8669 51.3062 47.0628 51.3062H41.0754Z" stroke="url(#paint0_linear_501_2)"/>
<path d="M39.1293 42.0188H35.2346V35.5293H37.182C37.5995 35.5293 38.0077 35.4054 38.3549 35.1734C38.7021 34.9415 38.9727 34.6117 39.1325 34.226C39.2923 33.8402 39.3341 33.4157 39.2526 33.0061C39.1712 32.5966 38.9701 32.2204 38.6748 31.9251C38.3796 31.6299 38.0034 31.4288 37.5939 31.3474C37.1843 31.2659 36.7598 31.3077 36.374 31.4675C35.9883 31.6273 35.6585 31.8979 35.4265 32.2451C35.1946 32.5923 35.0707 33.0005 35.0707 33.418H31.1772C31.1781 32.3155 31.4826 31.2345 32.0573 30.2936C32.6321 29.3527 33.4549 28.5883 34.4354 28.0842C35.416 27.5801 36.5164 27.3559 37.6161 27.436C38.7157 27.5162 39.772 27.8977 40.6691 28.5386C41.5662 29.1796 42.2694 30.0552 42.7016 31.0695C43.1339 32.0838 43.2783 33.1976 43.1193 34.2886C42.9602 35.3796 42.5037 36.4057 41.7999 37.2544C41.096 38.103 40.1721 38.7414 39.1293 39.0995V42.0188Z" fill="url(#paint1_linear_501_2)"/>
<path d="M35.2349 45.1481H39.1295V48.8292H35.2349V45.1481Z" fill="url(#paint2_linear_501_2)"/>
<path d="M59.9207 71.1829L59.7706 70.9953H59.5303H53.5429C51.7388 70.9953 50.0087 70.2786 48.733 69.003C47.4574 67.7273 46.7407 65.9972 46.7407 64.1931V52.3074H47.0626C49.1319 52.3074 51.1164 51.4853 52.5796 50.0221C54.0428 48.559 54.8648 46.5744 54.8648 44.5052V44.1879H73.3024C75.1064 44.1879 76.8366 44.9046 78.1122 46.1802C79.3879 47.4559 80.1046 49.1861 80.1046 50.9901V64.1931C80.1046 65.9972 79.3879 67.7273 78.1122 69.003C76.8366 70.2786 75.1064 70.9953 73.3024 70.9953H67.3196H67.0793L66.9292 71.1829L63.4249 75.5627L59.9207 71.1829Z" stroke="url(#paint3_linear_501_2)"/>
<path d="M61.4756 48.5857H65.3702V52.2668H61.4756V48.5857Z" fill="url(#paint4_linear_501_2)"/>
<path d="M61.4756 55.7297H65.3702V66.7129H61.4756V55.7297Z" fill="url(#paint5_linear_501_2)"/>
<path d="M46.05 110.06C45.89 109.933 45.7133 109.833 45.52 109.76C45.3267 109.68 45.1233 109.64 44.91 109.64C44.6033 109.64 44.3467 109.693 44.14 109.8C43.94 109.907 43.7733 110.08 43.64 110.32C43.5133 110.553 43.41 110.867 43.33 111.26L42.43 115.28L41.41 115.09L42.3 111.03C42.42 110.51 42.5867 110.083 42.8 109.75C43.02 109.417 43.3033 109.17 43.65 109.01C44.0033 108.843 44.4233 108.76 44.91 108.76C45.23 108.76 45.53 108.803 45.81 108.89C46.0967 108.977 46.3667 109.117 46.62 109.31L46.05 110.06ZM41.41 115.09L41.75 114.24L44.7 114.88C45.0933 114.967 45.4033 115.083 45.63 115.23C45.8633 115.37 46.03 115.547 46.13 115.76C46.23 115.967 46.28 116.21 46.28 116.49V117.02H45.23V116.64C45.23 116.387 45.1633 116.183 45.03 116.03C44.9033 115.883 44.7167 115.787 44.47 115.74L41.41 115.09ZM52.178 114.09C52.178 114.517 52.0713 114.88 51.858 115.18C51.6446 115.48 51.3446 115.71 50.958 115.87C50.578 116.023 50.128 116.1 49.608 116.1C49.168 116.1 48.768 116.06 48.408 115.98C48.048 115.893 47.718 115.787 47.418 115.66V114.69C47.8113 114.87 48.188 115.003 48.548 115.09C48.9146 115.177 49.2613 115.22 49.588 115.22C49.9213 115.22 50.2013 115.18 50.428 115.1C50.6613 115.013 50.838 114.89 50.958 114.73C51.078 114.563 51.138 114.363 51.138 114.13C51.138 113.91 51.088 113.727 50.988 113.58C50.8946 113.427 50.728 113.287 50.488 113.16C50.2546 113.033 49.928 112.9 49.508 112.76C49.1746 112.64 48.878 112.527 48.618 112.42C48.3646 112.307 48.1546 112.177 47.988 112.03C47.828 111.883 47.7046 111.703 47.618 111.49C47.538 111.277 47.498 111.017 47.498 110.71C47.498 110.29 47.6013 109.937 47.808 109.65C48.0146 109.357 48.3046 109.137 48.678 108.99C49.0513 108.837 49.4846 108.76 49.978 108.76C50.318 108.76 50.6546 108.797 50.988 108.87C51.3213 108.943 51.668 109.057 52.028 109.21L51.748 110.07C51.3946 109.91 51.0713 109.8 50.778 109.74C50.4846 109.673 50.2013 109.64 49.928 109.64C49.6346 109.64 49.3813 109.68 49.168 109.76C48.9613 109.84 48.8013 109.953 48.688 110.1C48.5813 110.247 48.528 110.433 48.528 110.66C48.528 110.88 48.5746 111.063 48.668 111.21C48.768 111.35 48.928 111.477 49.148 111.59C49.3746 111.703 49.6746 111.82 50.048 111.94C50.5213 112.093 50.9146 112.263 51.228 112.45C51.5413 112.637 51.778 112.86 51.938 113.12C52.098 113.38 52.178 113.703 52.178 114.09ZM57.7395 110.06C57.5795 109.933 57.4028 109.833 57.2095 109.76C57.0161 109.68 56.8128 109.64 56.5995 109.64C56.2928 109.64 56.0361 109.693 55.8295 109.8C55.6295 109.907 55.4628 110.08 55.3295 110.32C55.2028 110.553 55.0995 110.867 55.0195 111.26L54.1195 115.28L53.0995 115.09L53.9895 111.03C54.1095 110.51 54.2761 110.083 54.4895 109.75C54.7095 109.417 54.9928 109.17 55.3395 109.01C55.6928 108.843 56.1128 108.76 56.5995 108.76C56.9195 108.76 57.2195 108.803 57.4995 108.89C57.7861 108.977 58.0561 109.117 58.3095 109.31L57.7395 110.06ZM53.0995 115.09L53.4395 114.24L56.3895 114.88C56.7828 114.967 57.0928 115.083 57.3195 115.23C57.5528 115.37 57.7195 115.547 57.8195 115.76C57.9195 115.967 57.9695 116.21 57.9695 116.49V117.02H56.9195V116.64C56.9195 116.387 56.8528 116.183 56.7195 116.03C56.5928 115.883 56.4061 115.787 56.1595 115.74L53.0995 115.09Z" fill="black"/>
<defs>
<linearGradient id="paint0_linear_501_2" x1="37.1825" y1="24" x2="37.1825" y2="56.6739" gradientUnits="userSpaceOnUse">
<stop stop-color="#208B9D"/>
<stop offset="0.453125" stop-color="#4A5089"/>
<stop offset="1" stop-color="#76378B"/>
</linearGradient>
<linearGradient id="paint1_linear_501_2" x1="37.1797" y1="27.4202" x2="37.1797" y2="42.0188" gradientUnits="userSpaceOnUse">
<stop stop-color="#77378B"/>
<stop offset="0.473958" stop-color="#5A4187"/>
<stop offset="1" stop-color="#25839B"/>
</linearGradient>
<linearGradient id="paint2_linear_501_2" x1="37.1822" y1="45.1481" x2="37.1822" y2="48.8292" gradientUnits="userSpaceOnUse">
<stop stop-color="#77378B"/>
<stop offset="0.473958" stop-color="#5A4187"/>
<stop offset="1" stop-color="#25839B"/>
</linearGradient>
<linearGradient id="paint3_linear_501_2" x1="63.4226" y1="43.6879" x2="63.4226" y2="76.363" gradientUnits="userSpaceOnUse">
<stop stop-color="#1F8B9D"/>
<stop offset="0.473958" stop-color="#524485"/>
<stop offset="1" stop-color="#7B358B"/>
</linearGradient>
<linearGradient id="paint4_linear_501_2" x1="63.4229" y1="48.5857" x2="63.4229" y2="52.2668" gradientUnits="userSpaceOnUse">
<stop stop-color="#1F8B9D"/>
<stop offset="0.473958" stop-color="#524485"/>
<stop offset="1" stop-color="#7B358B"/>
</linearGradient>
<linearGradient id="paint5_linear_501_2" x1="63.4229" y1="55.7297" x2="63.4229" y2="66.7129" gradientUnits="userSpaceOnUse">
<stop stop-color="#1F8B9D"/>
<stop offset="0.473958" stop-color="#524485"/>
<stop offset="1" stop-color="#7B358B"/>
</linearGradient>
</defs>
</svg>
