<svg width="100" height="119" viewBox="0 0 100 119" fill="none" xmlns="http://www.w3.org/2000/svg">
<path d="M22.23 116H21.33V109.65H19.1V108.86H24.45V109.65H22.23V116ZM24.3713 110.64H25.3113L26.4713 113.69C26.538 113.87 26.598 114.043 26.6513 114.21C26.7113 114.377 26.7647 114.54 26.8113 114.7C26.858 114.853 26.8947 115.003 26.9213 115.15H26.9613C27.0013 114.983 27.0647 114.767 27.1513 114.5C27.238 114.227 27.328 113.953 27.4213 113.68L28.5113 110.64H29.4613L27.1513 116.74C27.0247 117.073 26.8747 117.363 26.7013 117.61C26.5347 117.863 26.328 118.057 26.0813 118.19C25.8413 118.33 25.548 118.4 25.2013 118.4C25.0413 118.4 24.9013 118.39 24.7813 118.37C24.6613 118.357 24.558 118.34 24.4713 118.32V117.62C24.5447 117.633 24.6313 117.647 24.7313 117.66C24.838 117.673 24.948 117.68 25.0613 117.68C25.268 117.68 25.4447 117.64 25.5913 117.56C25.7447 117.487 25.8747 117.377 25.9813 117.23C26.088 117.09 26.178 116.923 26.2513 116.73L26.5313 116.02L24.3713 110.64ZM32.859 110.54C33.519 110.54 34.049 110.77 34.449 111.23C34.8557 111.69 35.059 112.383 35.059 113.31C35.059 113.917 34.9657 114.43 34.779 114.85C34.599 115.263 34.3423 115.577 34.009 115.79C33.6823 115.997 33.2957 116.1 32.849 116.1C32.5757 116.1 32.3323 116.063 32.119 115.99C31.9057 115.917 31.7223 115.823 31.569 115.71C31.4223 115.59 31.2957 115.46 31.189 115.32H31.129C31.1423 115.433 31.1557 115.577 31.169 115.75C31.1823 115.923 31.189 116.073 31.189 116.2V118.4H30.309V110.64H31.029L31.149 111.37H31.189C31.2957 111.217 31.4223 111.077 31.569 110.95C31.7223 110.823 31.9023 110.723 32.109 110.65C32.3223 110.577 32.5723 110.54 32.859 110.54ZM32.699 111.28C32.339 111.28 32.049 111.35 31.829 111.49C31.609 111.623 31.449 111.827 31.349 112.1C31.249 112.373 31.1957 112.72 31.189 113.14V113.31C31.189 113.75 31.2357 114.123 31.329 114.43C31.4223 114.737 31.579 114.97 31.799 115.13C32.0257 115.29 32.3323 115.37 32.719 115.37C33.0457 115.37 33.3123 115.28 33.519 115.1C33.7323 114.92 33.889 114.677 33.989 114.37C34.0957 114.057 34.149 113.7 34.149 113.3C34.149 112.687 34.029 112.197 33.789 111.83C33.5557 111.463 33.1923 111.28 32.699 111.28ZM37.3413 110.64V116H36.4613V110.64H37.3413ZM36.9113 108.63C37.0447 108.63 37.1613 108.677 37.2613 108.77C37.368 108.857 37.4213 108.997 37.4213 109.19C37.4213 109.377 37.368 109.517 37.2613 109.61C37.1613 109.703 37.0447 109.75 36.9113 109.75C36.7647 109.75 36.6413 109.703 36.5413 109.61C36.4413 109.517 36.3913 109.377 36.3913 109.19C36.3913 108.997 36.4413 108.857 36.5413 108.77C36.6413 108.677 36.7647 108.63 36.9113 108.63ZM41.6195 110.54C42.2595 110.54 42.7428 110.697 43.0695 111.01C43.3961 111.317 43.5595 111.817 43.5595 112.51V116H42.6895V112.57C42.6895 112.137 42.5928 111.813 42.3995 111.6C42.2061 111.387 41.9028 111.28 41.4895 111.28C40.8961 111.28 40.4861 111.447 40.2595 111.78C40.0328 112.113 39.9195 112.593 39.9195 113.22V116H39.0395V110.64H39.7495L39.8795 111.37H39.9295C40.0495 111.183 40.1961 111.03 40.3695 110.91C40.5495 110.783 40.7461 110.69 40.9595 110.63C41.1728 110.57 41.3928 110.54 41.6195 110.54ZM47.1211 110.54C47.4744 110.54 47.7911 110.607 48.0711 110.74C48.3578 110.873 48.6011 111.077 48.8011 111.35H48.8511L48.9711 110.64H49.6711V116.09C49.6711 116.597 49.5844 117.02 49.4111 117.36C49.2378 117.707 48.9744 117.967 48.6211 118.14C48.2678 118.313 47.8178 118.4 47.2711 118.4C46.8844 118.4 46.5278 118.37 46.2011 118.31C45.8811 118.257 45.5944 118.173 45.3411 118.06V117.25C45.5144 117.337 45.7044 117.41 45.9111 117.47C46.1178 117.537 46.3411 117.587 46.5811 117.62C46.8211 117.653 47.0678 117.67 47.3211 117.67C47.7811 117.67 48.1411 117.533 48.4011 117.26C48.6678 116.993 48.8011 116.627 48.8011 116.16V115.95C48.8011 115.87 48.8044 115.757 48.8111 115.61C48.8178 115.457 48.8244 115.35 48.8311 115.29H48.7911C48.6044 115.563 48.3711 115.767 48.0911 115.9C47.8178 116.033 47.4978 116.1 47.1311 116.1C46.4378 116.1 45.8944 115.857 45.5011 115.37C45.1144 114.883 44.9211 114.203 44.9211 113.33C44.9211 112.757 45.0078 112.263 45.1811 111.85C45.3611 111.43 45.6144 111.107 45.9411 110.88C46.2678 110.653 46.6611 110.54 47.1211 110.54ZM47.2411 111.28C46.9411 111.28 46.6844 111.36 46.4711 111.52C46.2644 111.68 46.1044 111.913 45.9911 112.22C45.8844 112.527 45.8311 112.9 45.8311 113.34C45.8311 114 45.9511 114.507 46.1911 114.86C46.4378 115.207 46.7944 115.38 47.2611 115.38C47.5344 115.38 47.7678 115.347 47.9611 115.28C48.1544 115.207 48.3144 115.097 48.4411 114.95C48.5678 114.797 48.6611 114.603 48.7211 114.37C48.7811 114.137 48.8111 113.86 48.8111 113.54V113.33C48.8111 112.843 48.7544 112.45 48.6411 112.15C48.5344 111.85 48.3644 111.63 48.1311 111.49C47.8978 111.35 47.6011 111.28 47.2411 111.28ZM53.9811 118.37V111.06H54.8011L54.9311 111.87H54.9811C55.0878 111.69 55.2278 111.533 55.4011 111.4C55.5744 111.26 55.7811 111.153 56.0211 111.08C56.2611 111 56.5178 110.96 56.7911 110.96L56.6911 111.8C56.2044 111.8 55.8044 111.937 55.4911 112.21C55.1778 112.477 55.0211 112.887 55.0211 113.44V118.37H53.9811ZM59.8311 114.33C59.6311 114.243 59.3978 114.17 59.1311 114.11C58.8711 114.05 58.6044 114.003 58.3311 113.97C58.0644 113.937 57.8144 113.92 57.5811 113.92C57.3078 113.92 57.0911 113.983 56.9311 114.11C56.7711 114.23 56.6911 114.41 56.6911 114.65C56.6911 114.877 56.7478 115.043 56.8611 115.15C56.9744 115.25 57.1444 115.3 57.3711 115.3C57.5911 115.3 57.7611 115.243 57.8811 115.13C58.0011 115.01 58.0844 114.827 58.1311 114.58C58.1778 114.333 58.2011 114.013 58.2011 113.62C58.2011 113.18 58.1411 112.827 58.0211 112.56C57.9078 112.293 57.7378 112.1 57.5111 111.98C57.2911 111.86 57.0178 111.8 56.6911 111.8L56.7911 110.96C57.3244 110.96 57.7744 111.063 58.1411 111.27C58.5078 111.47 58.7844 111.767 58.9711 112.16C59.1578 112.553 59.2511 113.04 59.2511 113.62C59.2511 114.147 59.1811 114.597 59.0411 114.97C58.9011 115.343 58.6911 115.627 58.4111 115.82C58.1311 116.007 57.7811 116.1 57.3611 116.1C57.0344 116.1 56.7478 116.04 56.5011 115.92C56.2544 115.8 56.0644 115.63 55.9311 115.41C55.8044 115.19 55.7411 114.933 55.7411 114.64C55.7411 114.313 55.8178 114.04 55.9711 113.82C56.1244 113.593 56.3378 113.423 56.6111 113.31C56.8844 113.19 57.2044 113.13 57.5711 113.13C57.8378 113.13 58.1144 113.147 58.4011 113.18C58.6944 113.213 58.9844 113.263 59.2711 113.33C59.5578 113.397 59.8244 113.487 60.0711 113.6L59.8311 114.33ZM65.2749 112.87V116H64.4549L64.3249 115.19H64.2649C64.1783 115.357 64.0616 115.51 63.9149 115.65C63.7683 115.79 63.5883 115.9 63.3749 115.98C63.1683 116.06 62.9316 116.1 62.6649 116.1C62.2916 116.1 61.9683 116.03 61.6949 115.89C61.4283 115.75 61.2216 115.54 61.0749 115.26C60.9349 114.98 60.8649 114.637 60.8649 114.23V108.4H61.8949V114.02C61.8949 114.433 61.9883 114.743 62.1749 114.95C62.3616 115.157 62.6116 115.26 62.9249 115.26C63.1916 115.26 63.4216 115.193 63.6149 115.06C63.8149 114.92 63.9683 114.713 64.0749 114.44C64.1816 114.167 64.2349 113.827 64.2349 113.42V112.87H65.2749ZM61.3649 111.06H65.4549V111.86H61.3649V111.06ZM71.3784 111.06V116H70.5584L70.4284 115.19H70.3684C70.2818 115.357 70.1651 115.51 70.0184 115.65C69.8718 115.79 69.6918 115.9 69.4784 115.98C69.2718 116.06 69.0351 116.1 68.7684 116.1C68.3951 116.1 68.0718 116.03 67.7984 115.89C67.5318 115.75 67.3251 115.54 67.1784 115.26C67.0384 114.98 66.9684 114.637 66.9684 114.23V111.06H67.9984V114.02C67.9984 114.433 68.0918 114.743 68.2784 114.95C68.4651 115.157 68.7151 115.26 69.0284 115.26C69.2951 115.26 69.5251 115.193 69.7184 115.06C69.9184 114.92 70.0718 114.713 70.1784 114.44C70.2851 114.167 70.3384 113.827 70.3384 113.42V111.06H71.3784ZM79.052 110.96C79.4253 110.96 79.7453 111.03 80.012 111.17C80.2853 111.31 80.492 111.52 80.632 111.8C80.7786 112.073 80.852 112.417 80.852 112.83V116H79.812V113.03C79.812 112.61 79.7186 112.3 79.532 112.1C79.352 111.9 79.1053 111.8 78.792 111.8C78.5186 111.8 78.2853 111.867 78.092 112C77.8986 112.133 77.7486 112.337 77.642 112.61C77.5353 112.883 77.482 113.223 77.482 113.63V116H76.662L76.532 115.19H76.472C76.3853 115.357 76.2686 115.51 76.122 115.65C75.9753 115.79 75.7953 115.9 75.582 115.98C75.3753 116.06 75.1386 116.1 74.872 116.1C74.4986 116.1 74.1753 116.03 73.902 115.89C73.6353 115.75 73.4286 115.54 73.282 115.26C73.142 114.98 73.072 114.637 73.072 114.23V111.06H74.102V114.02C74.102 114.433 74.1953 114.743 74.382 114.95C74.5686 115.157 74.8186 115.26 75.132 115.26C75.3986 115.26 75.6286 115.193 75.822 115.06C76.022 114.92 76.1753 114.713 76.282 114.44C76.3886 114.167 76.442 113.827 76.442 113.42V111.06H77.262L77.392 111.87H77.442C77.5353 111.697 77.6553 111.543 77.802 111.41C77.9486 111.27 78.1253 111.16 78.332 111.08C78.5386 111 78.7786 110.96 79.052 110.96Z" fill="black"/>
<path d="M90 0H10C4.47715 0 0 4.47715 0 10V90C0 95.5229 4.47715 100 10 100H90C95.5229 100 100 95.5229 100 90V10C100 4.47715 95.5229 0 90 0Z" fill="black"/>
<path d="M78.6764 62.7076L21.1103 62.1793L21.3182 37.9096L78.89 38.4622L78.6764 62.7076Z" fill="url(#paint0_linear_501_6)" stroke="url(#paint1_linear_501_6)" stroke-miterlimit="10" stroke-linecap="round" stroke-linejoin="round"/>
<path d="M28.0194 39.4157L22.6035 39.3647L22.5774 42.3618L27.9933 42.4127L28.0194 39.4157Z" fill="white" stroke="#132026" stroke-miterlimit="10"/>
<path d="M77.0443 54.6529L68.5088 54.5726L68.4826 57.5695L77.0181 57.6498L77.0443 54.6529Z" fill="white" stroke="#132026" stroke-miterlimit="10"/>
<path d="M77.1309 43.7647L71.8647 43.7151L71.8386 46.7122L77.1047 46.7617L77.1309 43.7647Z" fill="white" stroke="#132026" stroke-miterlimit="10"/>
<path d="M27.9403 50.3428L22.5244 50.2918L22.4983 53.2889L27.9141 53.3398L27.9403 50.3428Z" fill="white" stroke="#132026" stroke-miterlimit="10"/>
<path d="M26.9527 46.7058L22.5601 46.6645L22.5339 49.6615L26.9266 49.7029L26.9527 46.7058Z" fill="white" stroke="#132026" stroke-miterlimit="10"/>
<path d="M22.57 43.021L22.5439 46.018L25.5392 46.0463L25.5652 43.0493L22.57 43.021Z" fill="white" stroke="#132026" stroke-miterlimit="10"/>
<path d="M26.4138 43.0565L26.3877 46.0534L29.3829 46.0817L29.409 43.0847L26.4138 43.0565Z" fill="white" stroke="#132026" stroke-miterlimit="10"/>
<path d="M30.2321 43.0917L30.2061 46.0887L33.2013 46.117L33.2273 43.12L30.2321 43.0917Z" fill="white" stroke="#132026" stroke-miterlimit="10"/>
<path d="M34.0505 43.1269L34.0244 46.1239L37.0196 46.1522L37.0457 43.1552L34.0505 43.1269Z" fill="white" stroke="#132026" stroke-miterlimit="10"/>
<path d="M37.8947 43.1624L37.8687 46.1593L40.8639 46.1876L40.8899 43.1907L37.8947 43.1624Z" fill="white" stroke="#132026" stroke-miterlimit="10"/>
<path d="M41.7126 43.1976L41.6865 46.1945L44.6817 46.2228L44.7078 43.2259L41.7126 43.1976Z" fill="white" stroke="#132026" stroke-miterlimit="10"/>
<path d="M45.5309 43.2329L45.5049 46.2298L48.5001 46.2581L48.5261 43.2611L45.5309 43.2329Z" fill="white" stroke="#132026" stroke-miterlimit="10"/>
<path d="M49.3747 43.2685L49.3486 46.2654L52.3438 46.2937L52.3699 43.2967L49.3747 43.2685Z" fill="white" stroke="#132026" stroke-miterlimit="10"/>
<path d="M53.1935 43.3036L53.1675 46.3005L56.1627 46.3288L56.1887 43.3319L53.1935 43.3036Z" fill="white" stroke="#132026" stroke-miterlimit="10"/>
<path d="M57.0114 43.339L56.9854 46.3359L59.9806 46.3642L60.0066 43.3672L57.0114 43.339Z" fill="white" stroke="#132026" stroke-miterlimit="10"/>
<path d="M60.8552 43.3744L60.8291 46.3713L63.8243 46.3996L63.8504 43.4027L60.8552 43.3744Z" fill="white" stroke="#132026" stroke-miterlimit="10"/>
<path d="M64.1974 43.5592L64.1714 46.5562L67.1666 46.5845L67.1927 43.5875L64.1974 43.5592Z" fill="white" stroke="#132026" stroke-miterlimit="10"/>
<path d="M68.0158 43.5944L67.9897 46.5914L70.985 46.6197L71.011 43.6227L68.0158 43.5944Z" fill="white" stroke="#132026" stroke-miterlimit="10"/>
<path d="M21.9748 57.8376L21.9487 60.8345L24.9439 60.8628L24.97 57.8659L21.9748 57.8376Z" fill="white" stroke="#132026" stroke-miterlimit="10"/>
<path d="M25.7931 57.8728L25.7671 60.8698L28.7623 60.8981L28.7884 57.9011L25.7931 57.8728Z" fill="white" stroke="#132026" stroke-miterlimit="10"/>
<path d="M29.6369 57.9083L29.6108 60.9053L32.6061 60.9336L32.6321 57.9366L29.6369 57.9083Z" fill="white" stroke="#132026" stroke-miterlimit="10"/>
<path d="M33.4577 57.9398L33.4316 60.9367L37.1007 60.9713L37.1268 57.9744L33.4577 57.9398Z" fill="white" stroke="#132026" stroke-miterlimit="10"/>
<path d="M37.9524 58.0014L37.9263 60.9978L56.2202 61.17L56.2463 58.1736L37.9524 58.0014Z" fill="white" stroke="#132026" stroke-miterlimit="10"/>
<path d="M62.4059 58.2125L62.3799 61.2095L65.3751 61.2378L65.4011 58.2408L62.4059 58.2125Z" fill="white" stroke="#132026" stroke-miterlimit="10"/>
<path d="M66.2248 58.2477L66.1987 61.2447L69.1939 61.273L69.22 58.276L66.2248 58.2477Z" fill="white" stroke="#132026" stroke-miterlimit="10"/>
<path d="M70.0729 58.2895L70.0469 61.2864L73.0421 61.3147L73.0681 58.3178L70.0729 58.2895Z" fill="white" stroke="#132026" stroke-miterlimit="10"/>
<path d="M56.9924 58.157L56.9663 61.1538L61.6337 61.1979L61.6598 58.2011L56.9924 58.157Z" fill="white" stroke="#132026" stroke-miterlimit="10"/>
<path d="M74.0095 58.3185L73.9834 61.3154L76.9786 61.3437L77.0047 58.3468L74.0095 58.3185Z" fill="white" stroke="#132026" stroke-miterlimit="10"/>
<path d="M27.7741 46.7304L27.748 49.7274L30.7433 49.7557L30.7693 46.7587L27.7741 46.7304Z" fill="white" stroke="#132026" stroke-miterlimit="10"/>
<path d="M31.6178 46.7658L31.5918 49.7628L34.587 49.7911L34.6131 46.7941L31.6178 46.7658Z" fill="white" stroke="#132026" stroke-miterlimit="10"/>
<path d="M35.4362 46.8012L35.4102 49.7981L38.4054 49.8264L38.4314 46.8294L35.4362 46.8012Z" fill="white" stroke="#132026" stroke-miterlimit="10"/>
<path d="M39.2555 46.8364L39.2295 49.8333L42.2247 49.8616L42.2508 46.8647L39.2555 46.8364Z" fill="white" stroke="#132026" stroke-miterlimit="10"/>
<path d="M43.0993 46.8718L43.0732 49.8688L46.0685 49.897L46.0945 46.9001L43.0993 46.8718Z" fill="white" stroke="#132026" stroke-miterlimit="10"/>
<path d="M46.9167 46.9071L46.8906 49.9041L49.8858 49.9323L49.9119 46.9354L46.9167 46.9071Z" fill="white" stroke="#132026" stroke-miterlimit="10"/>
<path d="M50.2599 47.0919L50.2339 50.0888L53.2291 50.1171L53.2552 47.1202L50.2599 47.0919Z" fill="white" stroke="#132026" stroke-miterlimit="10"/>
<path d="M54.1027 47.1274L54.0767 50.1244L57.0719 50.1526L57.0979 47.1557L54.1027 47.1274Z" fill="white" stroke="#132026" stroke-miterlimit="10"/>
<path d="M57.9211 47.1626L57.895 50.1596L60.8902 50.1878L60.9163 47.1909L57.9211 47.1626Z" fill="white" stroke="#132026" stroke-miterlimit="10"/>
<path d="M61.7404 47.1979L61.7144 50.1948L64.7096 50.2231L64.7356 47.2262L61.7404 47.1979Z" fill="white" stroke="#132026" stroke-miterlimit="10"/>
<path d="M65.5842 47.2333L65.5581 50.2303L68.5533 50.2585L68.5794 47.2616L65.5842 47.2333Z" fill="white" stroke="#132026" stroke-miterlimit="10"/>
<path d="M69.4015 47.2686L69.3755 50.2655L72.3707 50.2938L72.3968 47.2969L69.4015 47.2686Z" fill="white" stroke="#132026" stroke-miterlimit="10"/>
<path d="M77.1176 47.3489L77.0576 53.9819L74.0543 53.9665L74.0952 50.314L73.1932 50.2942L73.2366 47.3081L77.1176 47.3489Z" fill="white" stroke="#132026" stroke-miterlimit="10"/>
<path d="M28.6315 50.3827L28.6055 53.3796L31.6007 53.4079L31.6267 50.411L28.6315 50.3827Z" fill="white" stroke="#132026" stroke-miterlimit="10"/>
<path d="M32.4499 50.4179L32.4238 53.4148L35.419 53.4431L35.4451 50.4462L32.4499 50.4179Z" fill="white" stroke="#132026" stroke-miterlimit="10"/>
<path d="M36.2936 50.4534L36.2676 53.4504L39.2628 53.4786L39.2888 50.4817L36.2936 50.4534Z" fill="white" stroke="#132026" stroke-miterlimit="10"/>
<path d="M39.6359 50.6382L39.6099 53.6351L42.6051 53.6634L42.6311 50.6664L39.6359 50.6382Z" fill="white" stroke="#132026" stroke-miterlimit="10"/>
<path d="M43.4543 50.6735L43.4282 53.6704L46.4234 53.6987L46.4495 50.7017L43.4543 50.6735Z" fill="white" stroke="#132026" stroke-miterlimit="10"/>
<path d="M47.2975 50.7088L47.2715 53.7058L50.2667 53.7341L50.2928 50.7371L47.2975 50.7088Z" fill="white" stroke="#132026" stroke-miterlimit="10"/>
<path d="M51.1174 50.7441L51.0913 53.7411L54.0865 53.7694L54.1126 50.7724L51.1174 50.7441Z" fill="white" stroke="#132026" stroke-miterlimit="10"/>
<path d="M54.9347 50.7794L54.9087 53.7763L57.9039 53.8046L57.93 50.8077L54.9347 50.7794Z" fill="white" stroke="#132026" stroke-miterlimit="10"/>
<path d="M58.778 50.8398L58.752 53.8367L61.7472 53.865L61.7732 50.8681L58.778 50.8398Z" fill="white" stroke="#132026" stroke-miterlimit="10"/>
<path d="M62.5964 50.8751L62.5703 53.872L65.5655 53.9003L65.5916 50.9034L62.5964 50.8751Z" fill="white" stroke="#132026" stroke-miterlimit="10"/>
<path d="M66.4152 50.9103L66.3892 53.9073L69.3844 53.9356L69.4104 50.9386L66.4152 50.9103Z" fill="white" stroke="#132026" stroke-miterlimit="10"/>
<path d="M70.2336 50.9455L70.2075 53.9425L73.2027 53.9707L73.2288 50.9738L70.2336 50.9455Z" fill="white" stroke="#132026" stroke-miterlimit="10"/>
<path d="M26.9772 54.0244L26.9512 57.0213L29.9464 57.0496L29.9724 54.0527L26.9772 54.0244Z" fill="white" stroke="#132026" stroke-miterlimit="10"/>
<path d="M30.319 54.2092L30.293 57.2061L33.2882 57.2344L33.3142 54.2375L30.319 54.2092Z" fill="white" stroke="#132026" stroke-miterlimit="10"/>
<path d="M34.1388 54.2444L34.1128 57.2414L37.108 57.2696L37.1341 54.2727L34.1388 54.2444Z" fill="white" stroke="#132026" stroke-miterlimit="10"/>
<path d="M37.9816 54.28L37.9556 57.2769L40.9508 57.3052L40.9768 54.3083L37.9816 54.28Z" fill="white" stroke="#132026" stroke-miterlimit="10"/>
<path d="M41.8 54.3152L41.7739 57.3122L44.7691 57.3404L44.7952 54.3435L41.8 54.3152Z" fill="white" stroke="#132026" stroke-miterlimit="10"/>
<path d="M45.6193 54.3504L45.5933 57.3474L48.5885 57.3757L48.6145 54.3787L45.6193 54.3504Z" fill="white" stroke="#132026" stroke-miterlimit="10"/>
<path d="M49.4621 54.3859L49.436 57.3829L52.4312 57.4112L52.4573 54.4142L49.4621 54.3859Z" fill="white" stroke="#132026" stroke-miterlimit="10"/>
<path d="M53.2804 54.4212L53.2544 57.4181L56.2496 57.4464L56.2757 54.4494L53.2804 54.4212Z" fill="white" stroke="#132026" stroke-miterlimit="10"/>
<path d="M57.0988 54.4813L57.0728 57.4783L60.068 57.5065L60.094 54.5096L57.0988 54.4813Z" fill="white" stroke="#132026" stroke-miterlimit="10"/>
<path d="M60.9426 54.5169L60.9165 57.5138L63.9117 57.5421L63.9378 54.5452L60.9426 54.5169Z" fill="white" stroke="#132026" stroke-miterlimit="10"/>
<path d="M64.7609 54.5522L64.7349 57.5491L67.7301 57.5774L67.7561 54.5804L64.7609 54.5522Z" fill="white" stroke="#132026" stroke-miterlimit="10"/>
<path d="M28.7194 39.6013L28.6934 42.5983L31.6886 42.6265L31.7146 39.6296L28.7194 39.6013Z" fill="white" stroke="#132026" stroke-miterlimit="10"/>
<path d="M32.5632 39.6368L32.5371 42.6337L35.5323 42.662L35.5584 39.665L32.5632 39.6368Z" fill="white" stroke="#132026" stroke-miterlimit="10"/>
<path d="M36.3815 39.672L36.3555 42.669L39.3507 42.6973L39.3767 39.7003L36.3815 39.672Z" fill="white" stroke="#132026" stroke-miterlimit="10"/>
<path d="M40.1994 39.7073L40.1733 42.7043L43.1686 42.7326L43.1946 39.7356L40.1994 39.7073Z" fill="white" stroke="#132026" stroke-miterlimit="10"/>
<path d="M44.0431 39.7427L44.0171 42.7397L47.0123 42.768L47.0384 39.771L44.0431 39.7427Z" fill="white" stroke="#132026" stroke-miterlimit="10"/>
<path d="M47.862 39.778L47.8359 42.7749L50.8311 42.8032L50.8572 39.8063L47.862 39.778Z" fill="white" stroke="#132026" stroke-miterlimit="10"/>
<path d="M51.6804 39.8132L51.6543 42.8101L54.6495 42.8384L54.6756 39.8415L51.6804 39.8132Z" fill="white" stroke="#132026" stroke-miterlimit="10"/>
<path d="M55.4987 39.8484L55.4727 42.8454L58.4679 42.8737L58.4939 39.8767L55.4987 39.8484Z" fill="white" stroke="#132026" stroke-miterlimit="10"/>
<path d="M59.3425 39.8839L59.3164 42.8808L62.3116 42.9091L62.3377 39.9122L59.3425 39.8839Z" fill="white" stroke="#132026" stroke-miterlimit="10"/>
<path d="M63.1613 39.9191L63.1353 42.9161L66.1305 42.9444L66.1565 39.9474L63.1613 39.9191Z" fill="white" stroke="#132026" stroke-miterlimit="10"/>
<path d="M66.9792 39.9545L66.9531 42.9514L69.9483 42.9797L69.9744 39.9828L66.9792 39.9545Z" fill="white" stroke="#132026" stroke-miterlimit="10"/>
<path d="M70.8234 39.9899L70.7974 42.9869L73.7926 43.0152L73.8186 40.0182L70.8234 39.9899Z" fill="white" stroke="#132026" stroke-miterlimit="10"/>
<path d="M74.1652 40.1748L74.1392 43.1717L77.1344 43.2L77.1604 40.2031L74.1652 40.1748Z" fill="white" stroke="#132026" stroke-miterlimit="10"/>
<path d="M26.1376 54.0149L22.4937 53.9806L22.4675 56.9777L26.1114 57.012L26.1376 54.0149Z" fill="white" stroke="#132026" stroke-miterlimit="10"/>
<defs>
<linearGradient id="paint0_linear_501_6" x1="19.97" y1="57.3462" x2="80.0147" y2="43.275" gradientUnits="userSpaceOnUse">
<stop offset="0.1816" stop-color="#1F8B9D"/>
<stop offset="0.1878" stop-color="#25859C"/>
<stop offset="0.2206" stop-color="#406C97"/>
<stop offset="0.2583" stop-color="#565892"/>
<stop offset="0.3024" stop-color="#67488F"/>
<stop offset="0.3568" stop-color="#723D8D"/>
<stop offset="0.4332" stop-color="#79378B"/>
<stop offset="0.6453" stop-color="#7B358B"/>
<stop offset="0.8525" stop-color="#603FA6"/>
<stop offset="1" stop-color="#5244B5"/>
</linearGradient>
<linearGradient id="paint1_linear_501_6" x1="19.8485" y1="57.3747" x2="80.1362" y2="43.2465" gradientUnits="userSpaceOnUse">
<stop offset="0.1816" stop-color="#1F8B9D"/>
<stop offset="0.1878" stop-color="#25859C"/>
<stop offset="0.2206" stop-color="#406C97"/>
<stop offset="0.2583" stop-color="#565892"/>
<stop offset="0.3024" stop-color="#67488F"/>
<stop offset="0.3568" stop-color="#723D8D"/>
<stop offset="0.4332" stop-color="#79378B"/>
<stop offset="0.6453" stop-color="#7B358B"/>
<stop offset="0.8525" stop-color="#603FA6"/>
<stop offset="1" stop-color="#5244B5"/>
</linearGradient>
</defs>
</svg>
