<svg width="79" height="78" viewBox="0 0 79 78" fill="none" xmlns="http://www.w3.org/2000/svg">
<path d="M40.5596 42.0773C32.4241 41.9706 26.7109 42.2908 26.7109 42.2908V56.0014H42.3421C42.3421 56.0014 48.4818 55.6811 48.5428 47.9032C48.5428 47.9032 48.6951 42.1841 40.5596 42.0773Z" fill="#1D1333"/>
<path d="M46.9581 27.8787C46.9581 27.8787 47.1105 22.6781 39.7062 22.5866C32.3172 22.4951 27.1221 22.7849 27.1221 22.7849V35.2296H41.3211C41.3211 35.2296 46.9124 34.9398 46.9581 27.8787Z" fill="#1D1333"/>
<path d="M65.0507 0H13.6982C6.36432 0 0.415039 5.95548 0.415039 13.297V64.703C0.415039 72.0445 6.36432 78 13.6982 78H65.0507C72.3846 78 78.3339 72.0445 78.3339 64.703V13.297C78.3339 5.95548 72.3846 0 65.0507 0ZM50.8546 60.0574C43.7185 63.1951 20.4387 61.4282 20.4387 61.4282V16.191C20.4387 16.191 38.9256 15.9016 45.0879 16.191C51.2502 16.4804 56.2409 21.7657 56.0431 28.239C55.8453 34.6971 49.3939 37.3474 49.3939 37.3474C63.8639 42.0387 58.0059 56.9197 50.8546 60.0574Z" fill="#1D1333"/>
</svg>
