<svg id="Слой_1" data-name="Слой 1" xmlns="http://www.w3.org/2000/svg" xmlns:xlink="http://www.w3.org/1999/xlink" viewBox="0 0 730.18 470.29"><defs><style>.cls-1{fill:url(#Безымянный_градиент_173);}.cls-2{fill:url(#Безымянный_градиент_325);}.cls-3{fill:url(#Безымянный_градиент_191);}.cls-4{fill:url(#Безымянный_градиент_155);}.cls-5{fill:url(#Безымянный_градиент_192);}.cls-6{fill:#219ca9;}.cls-7{fill:#9b559c;}</style><linearGradient id="Безымянный_градиент_173" x1="1081.95" y1="316.42" x2="1027.54" y2="399.42" gradientUnits="userSpaceOnUse"><stop offset="0" stop-color="#393e7c"/><stop offset="0.4" stop-color="#744592"/><stop offset="0.94" stop-color="#a1458e"/></linearGradient><linearGradient id="Безымянный_градиент_325" x1="964.32" y1="414.4" x2="1095.59" y2="545.67" gradientUnits="userSpaceOnUse"><stop offset="0.06" stop-color="#7b358b"/><stop offset="0.13" stop-color="#5d4087"/><stop offset="0.25" stop-color="#354f81"/><stop offset="0.34" stop-color="#1d587d"/><stop offset="0.4" stop-color="#145b7c"/><stop offset="0.53" stop-color="#186e89"/><stop offset="0.83" stop-color="#2296a5"/><stop offset="0.99" stop-color="#25a5af"/></linearGradient><linearGradient id="Безымянный_градиент_191" x1="864.4" y1="391.09" x2="826.78" y2="343.13" gradientUnits="userSpaceOnUse"><stop offset="0.13" stop-color="#2e3875"/><stop offset="0.4" stop-color="#544394"/><stop offset="0.49" stop-color="#5f4393"/><stop offset="1" stop-color="#a0458b"/></linearGradient><linearGradient id="Безымянный_градиент_155" x1="783.54" y1="250.98" x2="1116.09" y2="311.8" gradientUnits="userSpaceOnUse"><stop offset="0.05" stop-color="#7b358b"/><stop offset="0.19" stop-color="#5a4186"/><stop offset="0.35" stop-color="#3b4c82"/><stop offset="0.51" stop-color="#26557f"/><stop offset="0.67" stop-color="#18597d"/><stop offset="0.81" stop-color="#145b7c"/><stop offset="0.99" stop-color="#25a5af"/></linearGradient><linearGradient id="Безымянный_градиент_192" x1="813.95" y1="483.32" x2="1024.08" y2="355.09" gradientUnits="userSpaceOnUse"><stop offset="0.05" stop-color="#7b358b"/><stop offset="0.13" stop-color="#5a4186"/><stop offset="0.22" stop-color="#3b4c82"/><stop offset="0.3" stop-color="#26557f"/><stop offset="0.38" stop-color="#18597d"/><stop offset="0.45" stop-color="#145b7c"/><stop offset="0.98" stop-color="#25a5af"/></linearGradient></defs><path class="cls-1" d="M1089.38,366.9s-10.24,24-26.07,30.75-33,7.78-49.55,7.26l36.54-104,12.23-2.33,14,12.2,9.08,19.71,3.76,19.2V366.9Z" transform="translate(-581.63 -242.95)"/><path class="cls-2" d="M964,414.77s39.17,80.68,42.81,88.47,10.37,20,18.16,25.42,21,12.71,28.53,13,46.18,0,46.18,0S1067.2,475,1062,465.1s-18.42-31.65-41-41.77S964,414.77,964,414.77Z" transform="translate(-581.63 -242.95)"/><path class="cls-3" d="M780.6,403.1h70l11.48-20.44,34-21,30-10.7h-71c-13,0-25.88-.78-35.61,3.31s-25.88,16.34-30.94,28S780.6,403.1,780.6,403.1Z" transform="translate(-581.63 -242.95)"/><path class="cls-4" d="M775.73,300h0a90.07,90.07,0,0,1,83.71-56.81h180.13s35-1.56,45.53,3.89,23.35,19.07,27.24,33.07a53.3,53.3,0,0,1-1.55,33.86c-3.12,8.17-21.41,52.92-21.41,52.92s-3.11-40.47-14-52.92-24.13-14-40.87-14Z" transform="translate(-581.63 -242.95)"/><path class="cls-5" d="M798.3,541.75s40.47-108.69,45.53-123.87,11.09-32.49,20.63-40.47S896,355,919.72,351h100.59s-7.59,29.77-20.82,39.89S975.56,405.43,969.72,406s-50.52,1.63-52.08,1.75-2.59,1.3-3.37,3.12S887.94,483,884.82,491.56s-8.56,25.68-16.86,32.69S853.43,544.72,798.3,541.75Z" transform="translate(-581.63 -242.95)"/><path class="cls-6" d="M655.27,712.63,630,677.18a75.75,75.75,0,0,1-10.31.75h-30.3v34.7h-7.73V606.57h38c26.67,0,42.73,13.33,42.73,35.76,0,16.82-9.09,28.48-24.85,33.18l26.52,37.12Zm-35.61-41.51c22.73,0,34.85-10.61,34.85-28.79,0-18.34-12.12-28.79-34.85-28.79h-30.3v57.58Z" transform="translate(-581.63 -242.95)"/><path class="cls-6" d="M679.67,673.09c0-23.49,16.81-40.16,39.54-40.16s39.55,16.67,39.55,40.16-16.82,40.15-39.55,40.15S679.67,696.57,679.67,673.09Zm71.36,0c0-19.85-13.64-33.34-31.82-33.34s-31.82,13.49-31.82,33.34,13.64,33.33,31.82,33.33S751,692.94,751,673.09Z" transform="translate(-581.63 -242.95)"/><path class="cls-6" d="M773.61,673.09c0-23.49,16.82-40.16,39.55-40.16s39.54,16.67,39.54,40.16-16.82,40.15-39.54,40.15S773.61,696.57,773.61,673.09Zm71.37,0c0-19.85-13.64-33.34-31.82-33.34s-31.82,13.49-31.82,33.34,13.63,33.33,31.82,33.33S845,692.94,845,673.09Z" transform="translate(-581.63 -242.95)"/><path class="cls-6" d="M913,707.63c-3.94,3.79-10.3,5.61-16.21,5.61-13.94,0-21.52-8.18-21.52-21.52V616.27h7.58v17.27H908v6.51H882.86V691c0,10.15,5,15.75,14.69,15.75a18.18,18.18,0,0,0,12.28-4.39Z" transform="translate(-581.63 -242.95)"/><path class="cls-7" d="M970.89,707.63c-3.94,3.79-10.3,5.61-16.21,5.61-13.94,0-21.52-8.18-21.52-21.52V616.27h7.58v17.27h25.15v6.51H940.74V691c0,10.15,5,15.75,14.7,15.75a18.17,18.17,0,0,0,12.27-4.39Z" transform="translate(-581.63 -242.95)"/><path class="cls-7" d="M1046.8,695.36l4.4,5c-7,8.48-17.73,12.88-29.85,12.88-23.94,0-40.91-16.67-40.91-40.15s16.06-40.16,38.48-40.16c21.06,0,36.06,15.76,37.12,36.82l-66.82,13c3.79,14.55,16.06,23.64,32.28,23.64C1031.65,706.42,1040.74,702.78,1046.8,695.36Zm-58.94-22.88c0,1.52.15,3.18.3,4.7l60.31-11.82c-2.12-14.09-13.34-25.76-29.55-25.76C1000.74,639.6,987.86,653.24,987.86,672.48Z" transform="translate(-581.63 -242.95)"/><path class="cls-7" d="M1149.83,633.54v79.09h-7.42V694c-6.21,12.27-18.18,19.24-32.43,19.24-22.27,0-39.09-16.52-39.09-40.15,0-23.79,16.82-40.16,39.09-40.16,14.1,0,25.92,7,32.28,18.94V633.54Zm-7.57,39.55c0-19.85-13.64-33.34-31.82-33.34s-31.82,13.49-31.82,33.34,13.64,33.33,31.82,33.33S1142.26,692.94,1142.26,673.09Z" transform="translate(-581.63 -242.95)"/><path class="cls-7" d="M1311.81,666.42v46.21h-7.58V667c0-17.88-9.24-27.28-24.69-27.28-17.88,0-28.94,12-28.94,30.76v42.12H1243V667c0-17.88-9.24-27.28-24.7-27.28-17.88,0-28.94,12-28.94,30.76v42.12h-7.57V633.54h7.27v17c5.15-11.06,15.91-17.58,30.3-17.58s24.7,6.52,28.94,19.1c5.15-11.52,16.67-19.1,32-19.1C1299.39,632.93,1311.81,644.3,1311.81,666.42Z" transform="translate(-581.63 -242.95)"/></svg>